<mxfile host="app.diagrams.net" modified="2022-02-22T12:16:10.663Z" agent="5.0 (Windows NT 10.0; Win64; x64) AppleWebKit/537.36 (KHTML, like Gecko) Chrome/98.0.4758.102 Safari/537.36 Edg/98.0.1108.55" etag="_O3hbd_VrDVWR2gDJaDF" version="16.5.6" type="github">
  <diagram id="YkzmL43ZtJKFJGWKO7Qc" name="Page-1">
    <mxGraphModel dx="1422" dy="762" grid="1" gridSize="10" guides="1" tooltips="1" connect="1" arrows="1" fold="1" page="1" pageScale="1" pageWidth="850" pageHeight="1100" math="0" shadow="0">
      <root>
        <mxCell id="0" />
        <mxCell id="1" parent="0" />
        <mxCell id="GeSmKO4FbiWc6Ok3OQrn-1" value="Pizza" style="swimlane;fontStyle=2;align=center;verticalAlign=top;childLayout=stackLayout;horizontal=1;startSize=26;horizontalStack=0;resizeParent=1;resizeLast=0;collapsible=1;marginBottom=0;rounded=0;shadow=0;strokeWidth=1;" vertex="1" parent="1">
          <mxGeometry x="140" y="40" width="160" height="140" as="geometry">
            <mxRectangle x="140" y="40" width="160" height="26" as="alternateBounds" />
          </mxGeometry>
        </mxCell>
        <mxCell id="GeSmKO4FbiWc6Ok3OQrn-2" value="price" style="text;align=left;verticalAlign=top;spacingLeft=4;spacingRight=4;overflow=hidden;rotatable=0;points=[[0,0.5],[1,0.5]];portConstraint=eastwest;" vertex="1" parent="GeSmKO4FbiWc6Ok3OQrn-1">
          <mxGeometry y="26" width="160" height="26" as="geometry" />
        </mxCell>
        <mxCell id="GeSmKO4FbiWc6Ok3OQrn-5" value="" style="line;html=1;strokeWidth=1;align=left;verticalAlign=middle;spacingTop=-1;spacingLeft=3;spacingRight=3;rotatable=0;labelPosition=right;points=[];portConstraint=eastwest;" vertex="1" parent="GeSmKO4FbiWc6Ok3OQrn-1">
          <mxGeometry y="52" width="160" height="8" as="geometry" />
        </mxCell>
        <mxCell id="GeSmKO4FbiWc6Ok3OQrn-6" value="cost()" style="text;align=left;verticalAlign=top;spacingLeft=4;spacingRight=4;overflow=hidden;rotatable=0;points=[[0,0.5],[1,0.5]];portConstraint=eastwest;" vertex="1" parent="GeSmKO4FbiWc6Ok3OQrn-1">
          <mxGeometry y="60" width="160" height="28" as="geometry" />
        </mxCell>
        <mxCell id="GeSmKO4FbiWc6Ok3OQrn-7" value="VeganPizza" style="swimlane;fontStyle=0;align=center;verticalAlign=top;childLayout=stackLayout;horizontal=1;startSize=26;horizontalStack=0;resizeParent=1;resizeLast=0;collapsible=1;marginBottom=0;rounded=0;shadow=0;strokeWidth=1;" vertex="1" parent="1">
          <mxGeometry x="30" y="490" width="160" height="140" as="geometry">
            <mxRectangle x="130" y="380" width="160" height="26" as="alternateBounds" />
          </mxGeometry>
        </mxCell>
        <mxCell id="GeSmKO4FbiWc6Ok3OQrn-8" value="price : 100" style="text;align=left;verticalAlign=top;spacingLeft=4;spacingRight=4;overflow=hidden;rotatable=0;points=[[0,0.5],[1,0.5]];portConstraint=eastwest;" vertex="1" parent="GeSmKO4FbiWc6Ok3OQrn-7">
          <mxGeometry y="26" width="160" height="26" as="geometry" />
        </mxCell>
        <mxCell id="GeSmKO4FbiWc6Ok3OQrn-10" value="" style="line;html=1;strokeWidth=1;align=left;verticalAlign=middle;spacingTop=-1;spacingLeft=3;spacingRight=3;rotatable=0;labelPosition=right;points=[];portConstraint=eastwest;" vertex="1" parent="GeSmKO4FbiWc6Ok3OQrn-7">
          <mxGeometry y="52" width="160" height="8" as="geometry" />
        </mxCell>
        <mxCell id="GeSmKO4FbiWc6Ok3OQrn-11" value="cost() {&#xa;&#xa;    return price &#xa;}" style="text;align=left;verticalAlign=top;spacingLeft=4;spacingRight=4;overflow=hidden;rotatable=0;points=[[0,0.5],[1,0.5]];portConstraint=eastwest;fontStyle=0" vertex="1" parent="GeSmKO4FbiWc6Ok3OQrn-7">
          <mxGeometry y="60" width="160" height="80" as="geometry" />
        </mxCell>
        <mxCell id="GeSmKO4FbiWc6Ok3OQrn-13" value="" style="endArrow=block;endSize=10;endFill=0;shadow=0;strokeWidth=1;rounded=0;edgeStyle=elbowEdgeStyle;elbow=vertical;" edge="1" parent="1" source="GeSmKO4FbiWc6Ok3OQrn-7" target="GeSmKO4FbiWc6Ok3OQrn-1">
          <mxGeometry width="160" relative="1" as="geometry">
            <mxPoint x="120" y="123" as="sourcePoint" />
            <mxPoint x="120" y="123" as="targetPoint" />
          </mxGeometry>
        </mxCell>
        <mxCell id="GeSmKO4FbiWc6Ok3OQrn-14" value="RegularPizza" style="swimlane;fontStyle=0;align=center;verticalAlign=top;childLayout=stackLayout;horizontal=1;startSize=26;horizontalStack=0;resizeParent=1;resizeLast=0;collapsible=1;marginBottom=0;rounded=0;shadow=0;strokeWidth=1;" vertex="1" parent="1">
          <mxGeometry x="210" y="490" width="160" height="140" as="geometry">
            <mxRectangle x="340" y="380" width="170" height="26" as="alternateBounds" />
          </mxGeometry>
        </mxCell>
        <mxCell id="GeSmKO4FbiWc6Ok3OQrn-15" value="price : 200" style="text;align=left;verticalAlign=top;spacingLeft=4;spacingRight=4;overflow=hidden;rotatable=0;points=[[0,0.5],[1,0.5]];portConstraint=eastwest;" vertex="1" parent="GeSmKO4FbiWc6Ok3OQrn-14">
          <mxGeometry y="26" width="160" height="26" as="geometry" />
        </mxCell>
        <mxCell id="GeSmKO4FbiWc6Ok3OQrn-16" value="" style="line;html=1;strokeWidth=1;align=left;verticalAlign=middle;spacingTop=-1;spacingLeft=3;spacingRight=3;rotatable=0;labelPosition=right;points=[];portConstraint=eastwest;" vertex="1" parent="GeSmKO4FbiWc6Ok3OQrn-14">
          <mxGeometry y="52" width="160" height="8" as="geometry" />
        </mxCell>
        <mxCell id="GeSmKO4FbiWc6Ok3OQrn-34" value="&lt;span&gt;cost() {&lt;/span&gt;&lt;br style=&quot;padding: 0px ; margin: 0px&quot;&gt;&lt;br style=&quot;padding: 0px ; margin: 0px&quot;&gt;&lt;span&gt;&amp;nbsp;&amp;nbsp;&amp;nbsp;&amp;nbsp;return price&amp;nbsp;&lt;/span&gt;&lt;br style=&quot;padding: 0px ; margin: 0px&quot;&gt;&lt;span&gt;}&lt;/span&gt;" style="text;html=1;strokeColor=none;fillColor=none;align=left;verticalAlign=middle;whiteSpace=wrap;rounded=0;" vertex="1" parent="GeSmKO4FbiWc6Ok3OQrn-14">
          <mxGeometry y="60" width="160" height="80" as="geometry" />
        </mxCell>
        <mxCell id="GeSmKO4FbiWc6Ok3OQrn-17" value="" style="endArrow=block;endSize=10;endFill=0;shadow=0;strokeWidth=1;rounded=0;edgeStyle=elbowEdgeStyle;elbow=vertical;" edge="1" parent="1" source="GeSmKO4FbiWc6Ok3OQrn-14" target="GeSmKO4FbiWc6Ok3OQrn-1">
          <mxGeometry width="160" relative="1" as="geometry">
            <mxPoint x="130" y="293" as="sourcePoint" />
            <mxPoint x="230" y="191" as="targetPoint" />
          </mxGeometry>
        </mxCell>
        <mxCell id="GeSmKO4FbiWc6Ok3OQrn-39" value="PizzaDecorator" style="swimlane;fontStyle=2;align=center;verticalAlign=top;childLayout=stackLayout;horizontal=1;startSize=26;horizontalStack=0;resizeParent=1;resizeParentMax=0;resizeLast=0;collapsible=1;marginBottom=0;" vertex="1" parent="1">
          <mxGeometry x="540" y="45" width="160" height="136" as="geometry" />
        </mxCell>
        <mxCell id="GeSmKO4FbiWc6Ok3OQrn-40" value="pizza : Pizza " style="text;strokeColor=none;fillColor=none;align=left;verticalAlign=top;spacingLeft=4;spacingRight=4;overflow=hidden;rotatable=0;points=[[0,0.5],[1,0.5]];portConstraint=eastwest;" vertex="1" parent="GeSmKO4FbiWc6Ok3OQrn-39">
          <mxGeometry y="26" width="160" height="26" as="geometry" />
        </mxCell>
        <mxCell id="GeSmKO4FbiWc6Ok3OQrn-73" value="price" style="text;strokeColor=none;fillColor=none;align=left;verticalAlign=top;spacingLeft=4;spacingRight=4;overflow=hidden;rotatable=0;points=[[0,0.5],[1,0.5]];portConstraint=eastwest;" vertex="1" parent="GeSmKO4FbiWc6Ok3OQrn-39">
          <mxGeometry y="52" width="160" height="26" as="geometry" />
        </mxCell>
        <mxCell id="GeSmKO4FbiWc6Ok3OQrn-41" value="" style="line;strokeWidth=1;fillColor=none;align=left;verticalAlign=middle;spacingTop=-1;spacingLeft=3;spacingRight=3;rotatable=0;labelPosition=right;points=[];portConstraint=eastwest;" vertex="1" parent="GeSmKO4FbiWc6Ok3OQrn-39">
          <mxGeometry y="78" width="160" height="8" as="geometry" />
        </mxCell>
        <mxCell id="GeSmKO4FbiWc6Ok3OQrn-42" value="cost()" style="text;strokeColor=none;fillColor=none;align=left;verticalAlign=top;spacingLeft=4;spacingRight=4;overflow=hidden;rotatable=0;points=[[0,0.5],[1,0.5]];portConstraint=eastwest;" vertex="1" parent="GeSmKO4FbiWc6Ok3OQrn-39">
          <mxGeometry y="86" width="160" height="50" as="geometry" />
        </mxCell>
        <mxCell id="GeSmKO4FbiWc6Ok3OQrn-74" style="edgeStyle=orthogonalEdgeStyle;rounded=0;orthogonalLoop=1;jettySize=auto;html=1;" edge="1" parent="1" source="GeSmKO4FbiWc6Ok3OQrn-43" target="GeSmKO4FbiWc6Ok3OQrn-42">
          <mxGeometry relative="1" as="geometry" />
        </mxCell>
        <mxCell id="GeSmKO4FbiWc6Ok3OQrn-43" value="ExtraCheese" style="swimlane;fontStyle=2;align=center;verticalAlign=top;childLayout=stackLayout;horizontal=1;startSize=26;horizontalStack=0;resizeParent=1;resizeParentMax=0;resizeLast=0;collapsible=1;marginBottom=0;" vertex="1" parent="1">
          <mxGeometry x="310" y="270" width="160" height="202" as="geometry" />
        </mxCell>
        <mxCell id="GeSmKO4FbiWc6Ok3OQrn-44" value="pizza : Pizza" style="text;strokeColor=none;fillColor=none;align=left;verticalAlign=top;spacingLeft=4;spacingRight=4;overflow=hidden;rotatable=0;points=[[0,0.5],[1,0.5]];portConstraint=eastwest;fontStyle=2" vertex="1" parent="GeSmKO4FbiWc6Ok3OQrn-43">
          <mxGeometry y="26" width="160" height="34" as="geometry" />
        </mxCell>
        <mxCell id="GeSmKO4FbiWc6Ok3OQrn-61" value="price: 20" style="text;strokeColor=none;fillColor=none;align=left;verticalAlign=top;spacingLeft=4;spacingRight=4;overflow=hidden;rotatable=0;points=[[0,0.5],[1,0.5]];portConstraint=eastwest;fontStyle=2" vertex="1" parent="GeSmKO4FbiWc6Ok3OQrn-43">
          <mxGeometry y="60" width="160" height="34" as="geometry" />
        </mxCell>
        <mxCell id="GeSmKO4FbiWc6Ok3OQrn-45" value="" style="line;strokeWidth=1;fillColor=none;align=left;verticalAlign=middle;spacingTop=-1;spacingLeft=3;spacingRight=3;rotatable=0;labelPosition=right;points=[];portConstraint=eastwest;" vertex="1" parent="GeSmKO4FbiWc6Ok3OQrn-43">
          <mxGeometry y="94" width="160" height="8" as="geometry" />
        </mxCell>
        <mxCell id="GeSmKO4FbiWc6Ok3OQrn-46" value="cost() {&#xa;&#xa;    return price + pizza.cost() &#xa;}" style="text;strokeColor=none;fillColor=none;align=left;verticalAlign=top;spacingLeft=4;spacingRight=4;overflow=hidden;rotatable=0;points=[[0,0.5],[1,0.5]];portConstraint=eastwest;" vertex="1" parent="GeSmKO4FbiWc6Ok3OQrn-43">
          <mxGeometry y="102" width="160" height="100" as="geometry" />
        </mxCell>
        <mxCell id="GeSmKO4FbiWc6Ok3OQrn-76" style="edgeStyle=orthogonalEdgeStyle;rounded=0;orthogonalLoop=1;jettySize=auto;html=1;entryX=0.5;entryY=0.98;entryDx=0;entryDy=0;entryPerimeter=0;" edge="1" parent="1" source="GeSmKO4FbiWc6Ok3OQrn-62" target="GeSmKO4FbiWc6Ok3OQrn-42">
          <mxGeometry relative="1" as="geometry" />
        </mxCell>
        <mxCell id="GeSmKO4FbiWc6Ok3OQrn-62" value="ExtraOnion" style="swimlane;fontStyle=2;align=center;verticalAlign=top;childLayout=stackLayout;horizontal=1;startSize=26;horizontalStack=0;resizeParent=1;resizeParentMax=0;resizeLast=0;collapsible=1;marginBottom=0;" vertex="1" parent="1">
          <mxGeometry x="480" y="270" width="160" height="202" as="geometry" />
        </mxCell>
        <mxCell id="GeSmKO4FbiWc6Ok3OQrn-63" value="pizza : Pizza" style="text;strokeColor=none;fillColor=none;align=left;verticalAlign=top;spacingLeft=4;spacingRight=4;overflow=hidden;rotatable=0;points=[[0,0.5],[1,0.5]];portConstraint=eastwest;fontStyle=2" vertex="1" parent="GeSmKO4FbiWc6Ok3OQrn-62">
          <mxGeometry y="26" width="160" height="34" as="geometry" />
        </mxCell>
        <mxCell id="GeSmKO4FbiWc6Ok3OQrn-64" value="price: 30" style="text;strokeColor=none;fillColor=none;align=left;verticalAlign=top;spacingLeft=4;spacingRight=4;overflow=hidden;rotatable=0;points=[[0,0.5],[1,0.5]];portConstraint=eastwest;fontStyle=2" vertex="1" parent="GeSmKO4FbiWc6Ok3OQrn-62">
          <mxGeometry y="60" width="160" height="34" as="geometry" />
        </mxCell>
        <mxCell id="GeSmKO4FbiWc6Ok3OQrn-65" value="" style="line;strokeWidth=1;fillColor=none;align=left;verticalAlign=middle;spacingTop=-1;spacingLeft=3;spacingRight=3;rotatable=0;labelPosition=right;points=[];portConstraint=eastwest;" vertex="1" parent="GeSmKO4FbiWc6Ok3OQrn-62">
          <mxGeometry y="94" width="160" height="8" as="geometry" />
        </mxCell>
        <mxCell id="GeSmKO4FbiWc6Ok3OQrn-66" value="cost() {&#xa;&#xa;    return price + pizza.cost()&#xa;}" style="text;strokeColor=none;fillColor=none;align=left;verticalAlign=top;spacingLeft=4;spacingRight=4;overflow=hidden;rotatable=0;points=[[0,0.5],[1,0.5]];portConstraint=eastwest;" vertex="1" parent="GeSmKO4FbiWc6Ok3OQrn-62">
          <mxGeometry y="102" width="160" height="100" as="geometry" />
        </mxCell>
        <mxCell id="GeSmKO4FbiWc6Ok3OQrn-77" style="edgeStyle=orthogonalEdgeStyle;rounded=0;orthogonalLoop=1;jettySize=auto;html=1;entryX=1;entryY=0.5;entryDx=0;entryDy=0;" edge="1" parent="1" source="GeSmKO4FbiWc6Ok3OQrn-67" target="GeSmKO4FbiWc6Ok3OQrn-42">
          <mxGeometry relative="1" as="geometry" />
        </mxCell>
        <mxCell id="GeSmKO4FbiWc6Ok3OQrn-67" value="ExtraCrust" style="swimlane;fontStyle=2;align=center;verticalAlign=top;childLayout=stackLayout;horizontal=1;startSize=26;horizontalStack=0;resizeParent=1;resizeParentMax=0;resizeLast=0;collapsible=1;marginBottom=0;" vertex="1" parent="1">
          <mxGeometry x="660" y="270" width="160" height="200" as="geometry" />
        </mxCell>
        <mxCell id="GeSmKO4FbiWc6Ok3OQrn-68" value="pizza : Pizza" style="text;strokeColor=none;fillColor=none;align=left;verticalAlign=top;spacingLeft=4;spacingRight=4;overflow=hidden;rotatable=0;points=[[0,0.5],[1,0.5]];portConstraint=eastwest;fontStyle=2" vertex="1" parent="GeSmKO4FbiWc6Ok3OQrn-67">
          <mxGeometry y="26" width="160" height="34" as="geometry" />
        </mxCell>
        <mxCell id="GeSmKO4FbiWc6Ok3OQrn-69" value="price: 40" style="text;strokeColor=none;fillColor=none;align=left;verticalAlign=top;spacingLeft=4;spacingRight=4;overflow=hidden;rotatable=0;points=[[0,0.5],[1,0.5]];portConstraint=eastwest;fontStyle=2" vertex="1" parent="GeSmKO4FbiWc6Ok3OQrn-67">
          <mxGeometry y="60" width="160" height="34" as="geometry" />
        </mxCell>
        <mxCell id="GeSmKO4FbiWc6Ok3OQrn-70" value="" style="line;strokeWidth=1;fillColor=none;align=left;verticalAlign=middle;spacingTop=-1;spacingLeft=3;spacingRight=3;rotatable=0;labelPosition=right;points=[];portConstraint=eastwest;" vertex="1" parent="GeSmKO4FbiWc6Ok3OQrn-67">
          <mxGeometry y="94" width="160" height="8" as="geometry" />
        </mxCell>
        <mxCell id="GeSmKO4FbiWc6Ok3OQrn-71" value="cost() {&#xa;&#xa;    return price + pizza.cost()&#xa;}" style="text;strokeColor=none;fillColor=none;align=left;verticalAlign=top;spacingLeft=4;spacingRight=4;overflow=hidden;rotatable=0;points=[[0,0.5],[1,0.5]];portConstraint=eastwest;" vertex="1" parent="GeSmKO4FbiWc6Ok3OQrn-67">
          <mxGeometry y="102" width="160" height="98" as="geometry" />
        </mxCell>
        <mxCell id="GeSmKO4FbiWc6Ok3OQrn-72" style="edgeStyle=orthogonalEdgeStyle;rounded=0;orthogonalLoop=1;jettySize=auto;html=1;entryX=0.5;entryY=0;entryDx=0;entryDy=0;" edge="1" parent="1" source="GeSmKO4FbiWc6Ok3OQrn-6" target="GeSmKO4FbiWc6Ok3OQrn-39">
          <mxGeometry relative="1" as="geometry" />
        </mxCell>
        <mxCell id="GeSmKO4FbiWc6Ok3OQrn-78" value="Regular&lt;br&gt;Pizza" style="ellipse;whiteSpace=wrap;html=1;aspect=fixed;fillColor=none;" vertex="1" parent="1">
          <mxGeometry x="590" y="790" width="80" height="80" as="geometry" />
        </mxCell>
        <mxCell id="GeSmKO4FbiWc6Ok3OQrn-79" value="" style="ellipse;whiteSpace=wrap;html=1;aspect=fixed;fillColor=none;" vertex="1" parent="1">
          <mxGeometry x="540" y="740" width="180" height="180" as="geometry" />
        </mxCell>
        <mxCell id="GeSmKO4FbiWc6Ok3OQrn-80" value="Extra&lt;br&gt;Onion" style="text;html=1;strokeColor=none;fillColor=none;align=center;verticalAlign=middle;whiteSpace=wrap;rounded=0;" vertex="1" parent="1">
          <mxGeometry x="600" y="750" width="60" height="30" as="geometry" />
        </mxCell>
        <mxCell id="GeSmKO4FbiWc6Ok3OQrn-81" value="" style="ellipse;whiteSpace=wrap;html=1;aspect=fixed;fillColor=none;" vertex="1" parent="1">
          <mxGeometry x="500" y="700" width="260" height="260" as="geometry" />
        </mxCell>
        <mxCell id="GeSmKO4FbiWc6Ok3OQrn-82" value="Extra&lt;br&gt;Cheese" style="text;html=1;strokeColor=none;fillColor=none;align=center;verticalAlign=middle;whiteSpace=wrap;rounded=0;" vertex="1" parent="1">
          <mxGeometry x="600" y="710" width="60" height="30" as="geometry" />
        </mxCell>
        <mxCell id="GeSmKO4FbiWc6Ok3OQrn-83" value="" style="ellipse;whiteSpace=wrap;html=1;aspect=fixed;fillColor=none;" vertex="1" parent="1">
          <mxGeometry x="450" y="650" width="340" height="340" as="geometry" />
        </mxCell>
        <mxCell id="GeSmKO4FbiWc6Ok3OQrn-84" value="Extra&amp;nbsp;&lt;br&gt;Crust" style="text;html=1;strokeColor=none;fillColor=none;align=center;verticalAlign=middle;whiteSpace=wrap;rounded=0;" vertex="1" parent="1">
          <mxGeometry x="600" y="670" width="60" height="30" as="geometry" />
        </mxCell>
        <mxCell id="GeSmKO4FbiWc6Ok3OQrn-85" value="" style="endArrow=classic;html=1;rounded=0;entryX=0.618;entryY=0.529;entryDx=0;entryDy=0;entryPerimeter=0;" edge="1" parent="1" target="GeSmKO4FbiWc6Ok3OQrn-83">
          <mxGeometry width="50" height="50" relative="1" as="geometry">
            <mxPoint x="670" y="630" as="sourcePoint" />
            <mxPoint x="500" y="670" as="targetPoint" />
          </mxGeometry>
        </mxCell>
        <mxCell id="GeSmKO4FbiWc6Ok3OQrn-86" value="cost" style="text;html=1;strokeColor=none;fillColor=none;align=center;verticalAlign=middle;whiteSpace=wrap;rounded=0;" vertex="1" parent="1">
          <mxGeometry x="660" y="680" width="60" height="30" as="geometry" />
        </mxCell>
        <mxCell id="GeSmKO4FbiWc6Ok3OQrn-87" value="cost" style="text;html=1;strokeColor=none;fillColor=none;align=center;verticalAlign=middle;whiteSpace=wrap;rounded=0;" vertex="1" parent="1">
          <mxGeometry x="650" y="770" width="60" height="30" as="geometry" />
        </mxCell>
        <mxCell id="GeSmKO4FbiWc6Ok3OQrn-88" value="cost" style="text;html=1;strokeColor=none;fillColor=none;align=center;verticalAlign=middle;whiteSpace=wrap;rounded=0;" vertex="1" parent="1">
          <mxGeometry x="660" y="720" width="60" height="30" as="geometry" />
        </mxCell>
        <mxCell id="GeSmKO4FbiWc6Ok3OQrn-89" value="cost" style="text;html=1;strokeColor=none;fillColor=none;align=center;verticalAlign=middle;whiteSpace=wrap;rounded=0;" vertex="1" parent="1">
          <mxGeometry x="640" y="820" width="60" height="30" as="geometry" />
        </mxCell>
        <mxCell id="GeSmKO4FbiWc6Ok3OQrn-90" value="&lt;div&gt;&lt;span&gt;var pizza = new RegularPizza()&amp;nbsp;&lt;/span&gt;&lt;/div&gt;&lt;div&gt;&lt;br&gt;&lt;/div&gt;&lt;div&gt;&lt;span&gt;pizza = new ExtraOnion(pizza)&lt;/span&gt;&lt;/div&gt;&lt;div&gt;&lt;span&gt;pizza = new ExtraCheese(pizza)&lt;/span&gt;&lt;/div&gt;&lt;div&gt;&lt;span&gt;pizza = new ExtraCrust(pizza)&lt;/span&gt;&lt;/div&gt;&lt;div&gt;&lt;br&gt;&lt;/div&gt;&lt;div&gt;&lt;span&gt;console.log(pizza.cost())&lt;/span&gt;&lt;/div&gt;" style="text;html=1;strokeColor=none;fillColor=#42FF94;align=center;verticalAlign=middle;whiteSpace=wrap;rounded=0;" vertex="1" parent="1">
          <mxGeometry x="100" y="712.5" width="320" height="235" as="geometry" />
        </mxCell>
      </root>
    </mxGraphModel>
  </diagram>
</mxfile>
